<svg width="320" height="323" viewBox="0 0 320 323" fill="none" xmlns="http://www.w3.org/2000/svg">
<circle cx="160" cy="163" r="160" fill="#BCF56C"/>
<path d="M126.2 193C127.8 193 129.867 192.8 132.4 192.4C134.933 192 137.467 191.267 140 190.2V213.2C135.6 214.533 131.333 215.533 127.2 216.2C123.2 216.867 119.333 217.2 115.6 217.2C109.733 217.2 104.933 216.333 101.2 214.6C97.4667 212.733 94.5333 210.4 92.4 207.6C90.4 204.8 89 201.667 88.2 198.2C87.5333 194.6 87.2 191 87.2 187.4V139.4H68.8V116H87.2V85.6H115V116H140V139.4H115V181.4C115 185.667 115.867 188.667 117.6 190.4C119.333 192.133 122.2 193 126.2 193ZM251.461 137C248.261 136.6 244.994 136.533 241.661 136.8C238.461 136.933 235.661 137.267 233.261 137.8C234.594 141.533 235.261 145.6 235.261 150C235.261 155.867 234.128 161.067 231.861 165.6C229.728 170 226.661 173.733 222.661 176.8C218.794 179.733 214.194 182 208.861 183.6C203.528 185.2 197.728 186 191.461 186C189.061 186 186.728 185.867 184.461 185.6C181.528 186.8 180.061 188.333 180.061 190.2C180.061 191.8 180.861 192.867 182.461 193.4C184.194 193.933 186.594 194.2 189.661 194.2H200.261C204.528 194.2 209.261 194.467 214.461 195C219.661 195.533 224.528 196.8 229.061 198.8C233.728 200.667 237.594 203.467 240.661 207.2C243.861 210.933 245.461 216.067 245.461 222.6C245.461 233.267 240.661 241.4 231.061 247C221.461 252.733 208.128 255.6 191.061 255.6C174.928 255.6 162.461 252.6 153.661 246.6C144.861 240.733 140.928 232.133 141.861 220.8H168.861C168.461 224.933 170.194 228.267 174.061 230.8C177.928 233.467 183.928 234.8 192.061 234.8C200.194 234.8 206.128 233.867 209.861 232C213.594 230.133 215.461 227.533 215.461 224.2C215.461 221.933 214.794 220.2 213.461 219C212.261 217.8 210.661 216.867 208.661 216.2C206.661 215.667 204.528 215.333 202.261 215.2C199.994 214.933 197.794 214.8 195.661 214.8H181.461C178.661 214.8 175.728 214.667 172.661 214.4C169.594 214 166.794 213.267 164.261 212.2C161.861 211.133 159.861 209.533 158.261 207.4C156.661 205.267 155.861 202.4 155.861 198.8C155.861 194.933 156.994 191.533 159.261 188.6C161.661 185.533 164.394 183 167.461 181C161.461 178.2 156.661 174.2 153.061 169C149.594 163.8 147.861 157.467 147.861 150C147.861 144.267 148.928 139.133 151.061 134.6C153.328 130.067 156.394 126.333 160.261 123.4C164.261 120.333 168.928 118 174.261 116.4C179.594 114.8 185.328 114 191.461 114C198.661 114 205.194 115 211.061 117C216.928 119 221.794 121.933 225.661 125.8C226.594 124.333 227.861 122.8 229.461 121.2C231.061 119.467 232.928 118 235.061 116.8C237.328 115.6 239.794 114.733 242.461 114.2C245.261 113.533 248.261 113.467 251.461 114V137ZM191.461 165.4C197.328 165.4 201.394 163.867 203.661 160.8C206.061 157.6 207.261 154 207.261 150C207.261 146 206.061 142.467 203.661 139.4C201.261 136.2 197.194 134.6 191.461 134.6C185.861 134.6 181.861 136.2 179.461 139.4C177.061 142.467 175.861 146 175.861 150C175.861 154 177.061 157.6 179.461 160.8C181.861 163.867 185.861 165.4 191.461 165.4Z" fill="black"/>
</svg>
